<svg width="20" height="20" viewBox="0 0 20 20" fill="none" xmlns="http://www.w3.org/2000/svg">
<path d="M11.6667 3.698C12.7885 3.698 13.6979 2.78857 13.6979 1.66675H14.6354C14.6354 2.78857 15.5448 3.698 16.6667 3.698V4.6355C15.5448 4.6355 14.6354 5.54492 14.6354 6.66675H13.6979C13.6979 5.54492 12.7885 4.6355 11.6667 4.6355V3.698ZM0.833344 9.16675C3.59477 9.16675 5.83334 6.92817 5.83334 4.16675H7.50001C7.50001 6.92817 9.73859 9.16675 12.5 9.16675V10.8334C9.73859 10.8334 7.50001 13.072 7.50001 15.8334H5.83334C5.83334 13.072 3.59477 10.8334 0.833344 10.8334V9.16675ZM14.375 11.6667C14.375 13.1625 13.1624 14.3751 11.6667 14.3751V15.6251C13.1624 15.6251 14.375 16.8377 14.375 18.3334H15.625C15.625 16.8377 16.8376 15.6251 18.3333 15.6251V14.3751C16.8376 14.3751 15.625 13.1625 15.625 11.6667H14.375Z" fill="#171411"/>
</svg>
